<?xml version="1.0" encoding="utf-8"?>
<!-- Generator: Adobe Illustrator 26.4.0, SVG Export Plug-In . SVG Version: 6.00 Build 0)  -->
<svg version="1.1" id="Layer_1" xmlns="http://www.w3.org/2000/svg" x="0px" y="0px"
	 viewBox="0 0 105.4 139.1" style="enable-background:new 0 0 105.4 139.1;" xml:space="preserve">
<style type="text/css">
	.st0{fill-rule:evenodd;clip-rule:evenodd;fill:#FFFFFF;}
	.st1{fill:none;stroke:#E12026;stroke-miterlimit:2.6131;}
	
		.st2{fill-rule:evenodd;clip-rule:evenodd;fill:#E12026;stroke:#E12026;stroke-width:0.25;stroke-linecap:round;stroke-linejoin:round;stroke-miterlimit:10;}
	.st3{fill-rule:evenodd;clip-rule:evenodd;fill:#E12026;}
</style>
<g>
	<path class="st0" d="M27.8,103.2L5.5,95.4l7.8-7.4C-17.7,48,10.9-0.1,54.7,0.5c39.9,2.4,69.7,45.8,35.5,89l6.2,7.4l-24.6,8.6h16.4
		l14.4,9l-0.4,23.8H1.2l0.4-24.6l14-9L27.8,103.2z"/>
	<path class="st1" d="M44.7,52c0.6-2.6,1.3-3,8.6-33.3"/>
	<polyline class="st1" points="53.3,19.1 55.9,19.1 62.7,58.3 	"/>
	<polyline class="st1" points="55.9,19 52.7,22.4 57.1,26.2 51.4,29 57.9,33.5 49,37.6 60.4,45.9 	"/>
	<path class="st1" d="M60.4,45.9c-0.7-0.3-15.3,5.2-15.3,5.2"/>
	<polyline class="st1" points="53.3,18.8 56.8,22.4 51.7,25.9 56.7,29 50.2,33.2 57.8,38.9 47.9,43.9 	"/>
	<path class="st1" d="M47.9,43.9c0,0,13.7,8.9,14.1,10.1"/>
	<path class="st1" d="M27.7,50.6c0-2.7,1.4-19.4,1.4-19.4"/>
	<polyline class="st1" points="29.1,31.2 29.8,50.6 27.7,50.6 	"/>
	<path class="st1" d="M28.7,31.1c0.1,0.2,0.3,0.5,0.7,0.6c0.1,0,1.5-0.7,2-0.7c2.6,0.1,6.5,1.1,8.2-1.6c0,0-2,0.3-2.2,0.4
		C36,30.1,35,30,33.5,29.8c-1.2-0.2-2.2,0.1-3.3,0.3C29.5,30.2,29,30.6,28.7,31.1"/>
	<path class="st1" d="M42.9,22.1c-1.9,0.2-0.1,0.4-2.3,0.2c1.6,0,5.5-0.3,5.5-0.3"/>
	<polyline class="st1" points="46,21.9 46.3,22.6 49.6,21.6 50.4,22.3 50.3,23.3 57,22.6 58.6,23 60.8,22.6 62.8,22.8 63.3,23.3 
		64.8,22.8 69.7,22.8 	"/>
	<polyline class="st1" points="35.4,24.3 39.6,24.5 39.7,25.1 44.2,24.6 42.9,25.3 49,24.8 48.8,26.1 51.4,25 	"/>
	<polyline class="st1" points="57.5,25.7 62,25.6 61.9,26.2 66.5,25.6 66.3,26.4 72.1,25.8 71.5,26.7 74.9,26.2 	"/>
	<polyline class="st1" points="31.7,26.9 35.2,27.2 34.9,27.8 39.2,27.2 39.2,28 44.6,27.2 44.4,28.1 50.5,27.3 	"/>
	<polyline class="st1" points="58,28.6 61.1,28.6 60.8,29.2 65.2,28.3 64.5,29.2 70.1,28.5 69.6,29.4 73.4,28.9 73.5,29.6 
		77.9,29.1 	"/>
	<path class="st1" d="M13.8,87.6C5.3,78.5,0.5,65,0.5,52.7c0-28.8,23.4-52.2,52.2-52.2c28.8,0,52.2,23.4,52.2,52.2
		c0,14.5-6,27.7-15.6,37.2"/>
	<polygon class="st1" points="25.9,77.5 52.9,89.5 79.4,77.9 96,96.4 52.5,112.4 5.8,95.1 	"/>
	<line class="st1" x1="52.5" y1="112.4" x2="52.7" y2="89.6"/>
	<path class="st1" d="M14.2,87.4l-4,6.7c15.6,4.7,28.3,10.5,42.4,17.4c13.5-7.2,25.1-13.1,39.3-16.6L90,89.4"/>
	<polyline class="st1" points="31,104.4 15.6,104.4 1.5,113.8 103,114.4 88.6,105.4 73.2,105.1 	"/>
	<polyline class="st1" points="1.4,113.2 0.8,138.6 102.8,138.4 102.7,113.7 	"/>
	<path class="st1" d="M28,81.5c-0.3-0.2-0.9-0.6-1.2-0.8"/>
	<path class="st1" d="M26,83.3c-0.3-0.2-0.9-0.6-1.2-0.8"/>
	<path class="st1" d="M28.6,85.2c-0.3-0.2-0.9-0.6-1.2-0.8"/>
	<path class="st1" d="M31.3,86.4c-0.3-0.2-0.9-0.6-1.2-0.8"/>
	<path class="st1" d="M33.9,87.6c-0.3-0.2-0.9-0.6-1.2-0.8"/>
	<path class="st1" d="M30.9,90c-0.3-0.2-0.9-0.6-1.2-0.8"/>
	<path class="st1" d="M27.8,88.6c-0.3-0.2-0.9-0.6-1.2-0.8"/>
	<path class="st1" d="M25,87.2c-0.3-0.2-0.9-0.6-1.2-0.8"/>
	<path class="st1" d="M23.2,85.8c-0.3-0.2-0.9-0.6-1.2-0.8"/>
	<path class="st1" d="M21.2,88.9c-0.3-0.2-0.9-0.6-1.2-0.8"/>
	<path class="st1" d="M24,89.8c-0.3-0.2-0.9-0.6-1.2-0.8"/>
	<path class="st1" d="M26.4,91.2c-0.3-0.2-0.9-0.6-1.2-0.8"/>
	<path class="st1" d="M29.4,92.4c-0.3-0.2-0.9-0.6-1.2-0.8"/>
	<path class="st1" d="M31.8,93.4c-0.2-0.1-0.6-0.4-0.8-0.6"/>
	<path class="st1" d="M18.3,90.2c-0.3-0.2-0.9-0.6-1.2-0.8"/>
	<path class="st1" d="M20.5,88.1c-0.3-0.2-0.9-0.6-1.2-0.8"/>
	<path class="st1" d="M15.8,92.8c-0.3-0.2-0.9-0.6-1.2-0.8"/>
	<path class="st1" d="M19.9,95.2c-0.3-0.2-0.9-0.6-1.2-0.8"/>
	<path class="st1" d="M25,97c-0.3-0.2-0.9-0.6-1.2-0.8"/>
	<path class="st1" d="M29,98.7c-0.3-0.2-0.9-0.6-1.2-0.8"/>
	<path class="st1" d="M32.7,100.5c-0.3-0.2-0.9-0.6-1.2-0.8"/>
	<path class="st1" d="M37.2,102.5c-0.3-0.2-0.9-0.6-1.2-0.8"/>
	<path class="st1" d="M22.4,92.7c-0.3-0.2-0.9-0.6-1.2-0.8"/>
	<path class="st1" d="M24.9,94c-0.3-0.2-0.9-0.6-1.2-0.8"/>
	<path class="st1" d="M27.8,95.2c-0.3-0.2-0.9-0.6-1.2-0.8"/>
	<path class="st1" d="M30.2,96.2c-0.2-0.1-0.6-0.4-0.8-0.6"/>
	<path class="st1" d="M35.2,95.3c-0.2-0.1-0.6-0.4-0.8-0.6"/>
	<path class="st1" d="M34.9,98.1c-0.2-0.1-0.6-0.4-0.8-0.6"/>
	<path class="st1" d="M38.9,100.7c-0.2-0.2-0.6-0.4-0.8-0.6"/>
	<path class="st1" d="M42.2,102.3c-0.2-0.1-0.6-0.4-0.8-0.6"/>
	<path class="st1" d="M40.9,104.2c-0.2-0.2-0.6-0.4-0.8-0.6"/>
	<path class="st1" d="M44.8,103.8c-0.2-0.2-0.6-0.4-0.8-0.6"/>
	<path class="st1" d="M44.9,105.7c-0.2-0.2-0.6-0.4-0.8-0.6"/>
	<path class="st1" d="M47.3,104.6c-0.2-0.1-0.6-0.4-0.8-0.6"/>
	<path class="st1" d="M47.9,107.1c-0.2-0.1-0.6-0.4-0.8-0.6"/>
	<path class="st1" d="M49.1,105.6c-0.2-0.2-0.6-0.4-0.8-0.6"/>
	<path class="st1" d="M37.8,96.5c-0.2-0.2-0.6-0.4-0.8-0.6"/>
	<path class="st1" d="M41.1,97.8c-0.2-0.2-0.6-0.4-0.8-0.6"/>
	<path class="st1" d="M44.1,99.7c-0.2-0.2-0.6-0.4-0.8-0.6"/>
	<path class="st1" d="M46.9,101.1c-0.2-0.2-0.6-0.4-0.8-0.6"/>
	<path class="st1" d="M49.6,102c-0.2-0.2-0.6-0.4-0.8-0.6"/>
	<path class="st1" d="M33.1,91.1c-0.3-0.2-0.9-0.6-1.2-0.8"/>
	<path class="st1" d="M36.3,92.4c-0.3-0.2-0.9-0.6-1.2-0.8"/>
	<path class="st1" d="M36.8,89.7c-0.3-0.2-0.9-0.6-1.2-0.8"/>
	<path class="st1" d="M39,90.5c-0.3-0.2-0.9-0.6-1.2-0.8"/>
	<path class="st1" d="M42.5,92c-0.3-0.2-0.9-0.6-1.2-0.8"/>
	<path class="st1" d="M45.3,93.3c-0.3-0.2-0.9-0.6-1.2-0.8"/>
	<path class="st1" d="M48,94.3c-0.3-0.2-0.9-0.6-1.2-0.8"/>
	<path class="st1" d="M50,95.2c-0.3-0.2-0.9-0.6-1.2-0.8"/>
	<path class="st1" d="M48.9,98.3c-0.3-0.2-0.9-0.6-1.2-0.8"/>
	<path class="st1" d="M46.1,96.9c-0.3-0.2-0.9-0.6-1.2-0.8"/>
	<path class="st1" d="M43,95.5c-0.3-0.2-0.9-0.6-1.2-0.8"/>
	<path class="st1" d="M39.8,93.8c-0.3-0.2-0.9-0.6-1.2-0.8"/>
	<path class="st1" d="M30.7,83.2c-0.3-0.2-0.9-0.6-1.2-0.8"/>
	<path class="st1" d="M33.7,84.9c-0.3-0.2-0.9-0.6-1.2-0.8"/>
	<path class="st1" d="M36.5,86.1c-0.3-0.2-0.9-0.6-1.2-0.8"/>
	<path class="st1" d="M40.1,88c-0.3-0.2-0.9-0.6-1.2-0.8"/>
	<path class="st1" d="M43.3,88.9c-0.3-0.2-0.9-0.6-1.2-0.8"/>
	<path class="st1" d="M46.2,90.6c-0.3-0.2-0.9-0.6-1.2-0.8"/>
	<path class="st1" d="M48.9,92c-0.3-0.2-0.9-0.6-1.2-0.8"/>
	<path class="st1" d="M55.9,90.4c0.4-0.1,0.7-0.2,1.1-0.3"/>
	<path class="st1" d="M59.2,89.7c0.4-0.1,0.7-0.2,1.1-0.3"/>
	<path class="st1" d="M61.3,89.1c0.4-0.1,0.7-0.2,1.1-0.3"/>
	<path class="st1" d="M55.8,92.7c0.4-0.1,0.7-0.2,1.1-0.3"/>
	<path class="st1" d="M59.2,92c0.4-0.1,0.7-0.2,1.1-0.3"/>
	<path class="st1" d="M61.2,91.5c0.4-0.1,0.7-0.2,1.1-0.3"/>
	<path class="st1" d="M55.8,95.1c0.4-0.1,0.7-0.2,1.1-0.3"/>
	<path class="st1" d="M59.2,94.4c0.4-0.1,0.7-0.2,1.1-0.3"/>
	<path class="st1" d="M61.2,93.8c0.4-0.1,0.7-0.2,1.1-0.3"/>
	<path class="st1" d="M55.8,97.6c0.4-0.1,0.7-0.2,1.1-0.3"/>
	<path class="st1" d="M59.2,97c0.4-0.1,0.7-0.2,1.1-0.3"/>
	<path class="st1" d="M61.2,96.4c0.4-0.1,0.7-0.2,1.1-0.3"/>
	<path class="st1" d="M56,100.2c0.4-0.1,0.7-0.2,1.1-0.3"/>
	<path class="st1" d="M59.3,99.5c0.4-0.1,0.7-0.2,1.1-0.3"/>
	<path class="st1" d="M61.4,99c0.4-0.1,0.7-0.2,1.1-0.3"/>
	<path class="st1" d="M56.2,102.5c0.4-0.1,0.7-0.2,1.1-0.3"/>
	<path class="st1" d="M59.5,101.8c0.4-0.1,0.7-0.2,1.1-0.3"/>
	<path class="st1" d="M61.6,101.3c0.4-0.1,0.7-0.2,1.1-0.3"/>
	<path class="st1" d="M56.3,105.2c0.4-0.1,0.7-0.2,1.1-0.3"/>
	<path class="st1" d="M59.6,104.5c0.4-0.1,0.7-0.2,1.1-0.3"/>
	<path class="st1" d="M61.7,104c0.4-0.1,0.7-0.2,1.1-0.3"/>
	<path class="st1" d="M64.5,89.9c0.4-0.1,0.7-0.2,1.1-0.3"/>
	<path class="st1" d="M64.5,92.2c0.4-0.1,0.7-0.2,1.1-0.3"/>
	<path class="st1" d="M64.5,94.8c0.4-0.1,0.7-0.2,1.1-0.3"/>
	<path class="st1" d="M64.6,97.4c0.4-0.1,0.7-0.2,1.1-0.3"/>
	<path class="st1" d="M64.9,99.6c0.4-0.1,0.7-0.2,1.1-0.3"/>
	<path class="st1" d="M64.9,102.4c0.4-0.1,0.7-0.2,1.1-0.3"/>
	<path class="st1" d="M67.6,88.8c0.4-0.1,0.7-0.2,1.1-0.3"/>
	<path class="st1" d="M67.6,91.1c0.4-0.1,0.7-0.2,1.1-0.3"/>
	<path class="st1" d="M67.6,93.7c0.4-0.1,0.7-0.2,1.1-0.3"/>
	<path class="st1" d="M67.8,96.3c0.4-0.1,0.7-0.2,1.1-0.3"/>
	<path class="st1" d="M68,98.5c0.4-0.1,0.7-0.2,1.1-0.3"/>
	<path class="st1" d="M68.1,101.3c0.4-0.1,0.7-0.2,1.1-0.3"/>
	<path class="st1" d="M70.2,87.8c0.4-0.1,0.7-0.2,1.1-0.3"/>
	<path class="st1" d="M70.2,90.2c0.4-0.1,0.7-0.2,1.1-0.3"/>
	<path class="st1" d="M70.2,92.7c0.4-0.1,0.7-0.2,1.1-0.3"/>
	<path class="st1" d="M70.4,95.3c0.4-0.1,0.7-0.2,1.1-0.3"/>
	<path class="st1" d="M70.6,97.6c0.4-0.1,0.7-0.2,1.1-0.3"/>
	<path class="st1" d="M70.7,100.3c0.4-0.1,0.7-0.2,1.1-0.3"/>
	<path class="st1" d="M73.1,86.4c0.4-0.1,0.7-0.2,1.1-0.3"/>
	<path class="st1" d="M73.1,88.8c0.4-0.1,0.7-0.2,1.1-0.3"/>
	<path class="st1" d="M73.1,91.4c0.4-0.1,0.7-0.2,1.1-0.3"/>
	<path class="st1" d="M73.3,93.9c0.4-0.1,0.7-0.2,1.1-0.3"/>
	<path class="st1" d="M73.5,96.2c0.4-0.1,0.7-0.2,1.1-0.3"/>
	<path class="st1" d="M73.6,99c0.4-0.1,0.7-0.2,1.1-0.3"/>
	<path class="st1" d="M75.6,85.3c0.4-0.1,0.7-0.2,1.1-0.3"/>
	<path class="st1" d="M75.6,87.7c0.4-0.1,0.7-0.2,1.1-0.3"/>
	<path class="st1" d="M75.6,90.3c0.4-0.1,0.7-0.2,1.1-0.3"/>
	<path class="st1" d="M75.7,92.9c0.4-0.1,0.7-0.2,1.1-0.3"/>
	<path class="st1" d="M76,95.1c0.4-0.1,0.7-0.2,1.1-0.3"/>
	<path class="st1" d="M76,97.9c0.4-0.1,0.7-0.2,1.1-0.3"/>
	<path class="st1" d="M78,84.8c0.4-0.1,0.7-0.2,1.1-0.3"/>
	<path class="st1" d="M78,87.1c0.4-0.1,0.7-0.2,1.1-0.3"/>
	<path class="st1" d="M78,89.7c0.4-0.1,0.7-0.2,1.1-0.3"/>
	<path class="st1" d="M78.2,92.3c0.4-0.1,0.7-0.2,1.1-0.3"/>
	<path class="st1" d="M78.4,94.6c0.4-0.1,0.7-0.2,1.1-0.3"/>
	<path class="st1" d="M78.5,97.3c0.4-0.1,0.7-0.2,1.1-0.3"/>
	<path class="st1" d="M80.5,84.1c0.4-0.1,0.7-0.2,1.1-0.3"/>
	<path class="st1" d="M81.9,86.3c0.4-0.1,0.7-0.2,1.1-0.3"/>
	<path class="st1" d="M80.5,89c0.4-0.1,0.7-0.2,1.1-0.3"/>
	<path class="st1" d="M82.7,88.4c0.4-0.1,0.7-0.2,1.1-0.3"/>
	<path class="st1" d="M80.6,91.6c0.4-0.1,0.7-0.2,1.1-0.3"/>
	<path class="st1" d="M83.5,90.7c0.4-0.1,0.7-0.2,1.1-0.3"/>
	<path class="st1" d="M84.8,89.6c0.4-0.1,0.7-0.2,1.1-0.3"/>
	<path class="st1" d="M80.9,93.9c0.4-0.1,0.7-0.2,1.1-0.3"/>
	<path class="st1" d="M83.7,92.5c0.4-0.1,0.7-0.2,1.1-0.3"/>
	<path class="st1" d="M85.8,91.7c0.4-0.1,0.7-0.2,1.1-0.3"/>
	<path class="st1" d="M83.1,95.5c0.4-0.1,0.7-0.2,1.1-0.3"/>
	<path class="st1" d="M85.1,94.4c0.4-0.1,0.7-0.2,1.1-0.3"/>
	<path class="st1" d="M86.7,93.6c0.4-0.1,0.7-0.2,1.1-0.3"/>
	<path class="st1" d="M63.9,88c0.4-0.1,0.7-0.2,1.1-0.3"/>
	<path class="st1" d="M66.8,87.1c0.4-0.1,0.7-0.2,1.1-0.3"/>
	<path class="st1" d="M68.8,86.2c0.4-0.1,0.7-0.2,1.1-0.3"/>
	<path class="st1" d="M72,84.7c0.4-0.1,0.7-0.2,1.1-0.3"/>
	<path class="st1" d="M74.3,83.9c0.4-0.1,0.7-0.2,1.1-0.3"/>
	<path class="st1" d="M76.8,82.9c0.4-0.1,0.7-0.2,1.1-0.3"/>
	<path class="st1" d="M78.7,81.5c0.4-0.1,0.7-0.2,1.1-0.3"/>
	<path class="st2" d="M84.5,125v-6.1h2.9v0.7H85v1.9h2v0.7h-2v2.7H84.5z M80.2,122c0,0.7,0.1,1.3,0.4,1.7c0.3,0.4,0.6,0.6,1,0.6
		c0.4,0,0.8-0.2,1-0.6c0.3-0.4,0.4-1,0.4-1.8c0-0.5-0.1-0.9-0.2-1.3c-0.1-0.4-0.3-0.7-0.5-0.9c-0.2-0.2-0.5-0.3-0.8-0.3
		c-0.4,0-0.7,0.2-1,0.6C80.4,120.5,80.2,121.1,80.2,122z M79.7,122c0-1,0.2-1.8,0.6-2.4c0.4-0.6,0.9-0.9,1.5-0.9
		c0.4,0,0.7,0.1,1.1,0.4c0.3,0.3,0.6,0.6,0.7,1.1c0.2,0.5,0.2,1,0.2,1.6c0,0.6-0.1,1.2-0.3,1.6c-0.2,0.5-0.4,0.9-0.7,1.1
		c-0.3,0.2-0.7,0.4-1,0.4c-0.4,0-0.8-0.1-1.1-0.4c-0.3-0.3-0.6-0.7-0.7-1.1C79.7,123.1,79.7,122.5,79.7,122z M75.4,125v-2.6
		l-1.6-3.5h0.7l0.8,1.8c0.2,0.3,0.3,0.7,0.4,1c0.1-0.3,0.3-0.7,0.5-1.1l0.8-1.8h0.7l-1.7,3.5v2.6H75.4z M71.7,125v-5.3h-1.4v-0.7
		h3.4v0.7h-1.4v5.3H71.7z M69,125v-6.1h0.6v6.1H69z M64.8,123l0.5-0.1c0,0.3,0.1,0.6,0.2,0.7c0.1,0.2,0.2,0.4,0.4,0.5
		c0.2,0.1,0.4,0.2,0.7,0.2c0.2,0,0.4,0,0.6-0.1c0.2-0.1,0.3-0.2,0.4-0.4c0.1-0.2,0.1-0.3,0.1-0.5c0-0.2,0-0.4-0.1-0.5
		c-0.1-0.1-0.2-0.3-0.4-0.4c-0.1-0.1-0.4-0.2-0.8-0.3c-0.4-0.1-0.7-0.3-0.8-0.4c-0.2-0.2-0.4-0.3-0.5-0.6c-0.1-0.2-0.1-0.5-0.1-0.8
		c0-0.3,0.1-0.6,0.2-0.9c0.1-0.3,0.3-0.5,0.5-0.6c0.2-0.1,0.5-0.2,0.8-0.2c0.3,0,0.6,0.1,0.8,0.2c0.2,0.1,0.4,0.4,0.6,0.6
		c0.1,0.3,0.2,0.6,0.2,1l-0.5,0.1c0-0.4-0.1-0.7-0.3-0.9c-0.2-0.2-0.4-0.3-0.7-0.3c-0.3,0-0.6,0.1-0.7,0.3c-0.2,0.2-0.2,0.4-0.2,0.6
		c0,0.2,0.1,0.4,0.2,0.5c0.1,0.1,0.4,0.3,0.8,0.4c0.5,0.1,0.8,0.3,0.9,0.4c0.2,0.2,0.4,0.4,0.5,0.6c0.1,0.2,0.2,0.5,0.2,0.9
		c0,0.3-0.1,0.6-0.2,0.9c-0.1,0.3-0.3,0.5-0.6,0.7c-0.2,0.2-0.5,0.2-0.8,0.2c-0.4,0-0.7-0.1-1-0.2c-0.3-0.2-0.5-0.4-0.6-0.7
		C64.9,123.8,64.8,123.4,64.8,123z M61.3,121.6h1.2c0.3,0,0.5,0,0.6-0.1c0.1-0.1,0.3-0.2,0.3-0.4c0.1-0.2,0.1-0.3,0.1-0.5
		c0-0.3-0.1-0.5-0.2-0.7c-0.1-0.2-0.4-0.3-0.7-0.3h-1.3V121.6z M60.7,125v-6.1h1.9c0.4,0,0.7,0.1,0.9,0.2c0.2,0.1,0.4,0.3,0.5,0.6
		c0.1,0.3,0.2,0.6,0.2,0.9c0,0.4-0.1,0.8-0.3,1.1c-0.2,0.3-0.5,0.5-0.9,0.6c0.2,0.1,0.3,0.2,0.3,0.3c0.2,0.2,0.3,0.5,0.5,0.8
		l0.7,1.6h-0.7l-0.6-1.3c-0.2-0.4-0.3-0.6-0.4-0.8c-0.1-0.2-0.2-0.3-0.3-0.4c-0.1-0.1-0.2-0.1-0.3-0.2c-0.1,0-0.2,0-0.3,0h-0.7v2.7
		H60.7z M56.8,125v-6.1h3.1v0.7h-2.5v1.9h2.4v0.7h-2.4v2.1h2.6v0.7H56.8z M54,125l-1.6-6.1H53l1.1,4.4c0.1,0.4,0.2,0.7,0.2,1
		c0.1-0.3,0.1-0.7,0.2-1l1.1-4.4h0.6l-1.7,6.1H54z M51.2,125v-6.1h0.6v6.1H51.2z M46.8,125v-6.1h0.6l2.2,4.8v-4.8h0.5v6.1h-0.6
		l-2.2-4.8v4.8H46.8z M45.3,118.9h0.6v3.5c0,0.6,0,1.1-0.1,1.4c-0.1,0.4-0.3,0.6-0.5,0.9c-0.3,0.2-0.6,0.3-1,0.3
		c-0.4,0-0.7-0.1-1-0.3c-0.3-0.2-0.4-0.5-0.5-0.8c-0.1-0.4-0.2-0.9-0.2-1.5v-3.5h0.6v3.5c0,0.5,0,0.9,0.1,1.2
		c0.1,0.2,0.2,0.4,0.4,0.6c0.2,0.1,0.4,0.2,0.6,0.2c0.4,0,0.7-0.1,0.9-0.4c0.2-0.3,0.3-0.8,0.3-1.5V118.9z M36.6,125v-6.1h0.6
		l2.2,4.8v-4.8H40v6.1h-0.6l-2.2-4.8v4.8H36.6z M35.1,125v-6.1h0.6v6.1H35.1z M30.7,125v-6.1h0.6v2.5h2.2v-2.5H34v6.1h-0.6v-2.9
		h-2.2v2.9H30.7z M29.4,122.8L30,123c-0.1,0.7-0.3,1.2-0.6,1.5c-0.3,0.3-0.7,0.5-1.1,0.5c-0.5,0-0.8-0.1-1.1-0.4
		c-0.3-0.3-0.5-0.7-0.7-1.2c-0.1-0.5-0.2-1-0.2-1.6c0-0.6,0.1-1.2,0.3-1.6c0.2-0.5,0.4-0.8,0.7-1.1c0.3-0.2,0.7-0.4,1-0.4
		c0.4,0,0.8,0.2,1.1,0.5c0.3,0.3,0.5,0.7,0.6,1.3l-0.6,0.2c-0.1-0.4-0.2-0.8-0.4-1c-0.2-0.2-0.4-0.3-0.7-0.3c-0.3,0-0.6,0.1-0.8,0.3
		c-0.2,0.2-0.4,0.5-0.5,0.9c-0.1,0.4-0.1,0.8-0.1,1.2c0,0.5,0.1,1,0.2,1.3c0.1,0.4,0.3,0.7,0.5,0.9c0.2,0.2,0.5,0.3,0.7,0.3
		c0.3,0,0.6-0.1,0.8-0.4C29.2,123.7,29.3,123.4,29.4,122.8z M22.2,122c0,0.7,0.1,1.3,0.4,1.7c0.3,0.4,0.6,0.6,1,0.6
		c0.4,0,0.8-0.2,1-0.6c0.3-0.4,0.4-1,0.4-1.8c0-0.5-0.1-0.9-0.2-1.3c-0.1-0.4-0.3-0.7-0.5-0.9c-0.2-0.2-0.5-0.3-0.8-0.3
		c-0.4,0-0.7,0.2-1,0.6C22.3,120.5,22.2,121.1,22.2,122z M21.6,122c0-1,0.2-1.8,0.6-2.4c0.4-0.6,0.9-0.9,1.5-0.9
		c0.4,0,0.7,0.1,1.1,0.4c0.3,0.3,0.6,0.6,0.7,1.1c0.2,0.5,0.2,1,0.2,1.6c0,0.6-0.1,1.2-0.3,1.6c-0.2,0.5-0.4,0.9-0.7,1.1
		c-0.3,0.2-0.7,0.4-1,0.4c-0.4,0-0.8-0.1-1.1-0.4c-0.3-0.3-0.6-0.7-0.7-1.1C21.7,123.1,21.6,122.5,21.6,122z M20.5,122.8l0.6,0.2
		c-0.1,0.7-0.3,1.2-0.6,1.5c-0.3,0.3-0.7,0.5-1.1,0.5c-0.5,0-0.8-0.1-1.1-0.4c-0.3-0.3-0.5-0.7-0.7-1.2c-0.1-0.5-0.2-1-0.2-1.6
		c0-0.6,0.1-1.2,0.3-1.6c0.2-0.5,0.4-0.8,0.7-1.1c0.3-0.2,0.7-0.4,1-0.4c0.4,0,0.8,0.2,1.1,0.5c0.3,0.3,0.5,0.7,0.6,1.3l-0.6,0.2
		c-0.1-0.4-0.2-0.8-0.4-1c-0.2-0.2-0.4-0.3-0.7-0.3c-0.3,0-0.6,0.1-0.8,0.3c-0.2,0.2-0.4,0.5-0.5,0.9c-0.1,0.4-0.1,0.8-0.1,1.2
		c0,0.5,0.1,1,0.2,1.3c0.1,0.4,0.3,0.7,0.5,0.9c0.2,0.2,0.5,0.3,0.7,0.3c0.3,0,0.6-0.1,0.8-0.4C20.3,123.7,20.4,123.4,20.5,122.8z"
		/>
	<path class="st2" d="M91.9,135.1v-2.6l-1.6-3.5H91l0.8,1.8c0.2,0.3,0.3,0.7,0.4,1c0.1-0.3,0.3-0.7,0.5-1.1l0.8-1.8h0.7l-1.7,3.5
		v2.6H91.9z M88.1,132.7V132l1.8,0v2.2c-0.3,0.3-0.6,0.6-0.9,0.7c-0.3,0.2-0.6,0.2-0.9,0.2c-0.4,0-0.8-0.1-1.1-0.4
		c-0.3-0.3-0.6-0.6-0.8-1.1c-0.2-0.5-0.3-1-0.3-1.6c0-0.6,0.1-1.1,0.3-1.6c0.2-0.5,0.4-0.9,0.7-1.1c0.3-0.2,0.7-0.4,1.1-0.4
		c0.3,0,0.6,0.1,0.8,0.2c0.2,0.1,0.4,0.3,0.6,0.6c0.1,0.3,0.2,0.6,0.3,1l-0.5,0.2c-0.1-0.3-0.1-0.6-0.2-0.7
		c-0.1-0.2-0.2-0.3-0.4-0.4c-0.2-0.1-0.4-0.2-0.6-0.2c-0.3,0-0.5,0.1-0.7,0.2c-0.2,0.1-0.3,0.3-0.5,0.4c-0.1,0.2-0.2,0.4-0.3,0.6
		c-0.1,0.4-0.2,0.8-0.2,1.2c0,0.5,0.1,1,0.2,1.4c0.1,0.4,0.3,0.6,0.6,0.8c0.2,0.2,0.5,0.3,0.8,0.3c0.2,0,0.5-0.1,0.7-0.2
		c0.2-0.1,0.4-0.3,0.5-0.4v-1.1H88.1z M81.9,132.1c0,0.7,0.1,1.3,0.4,1.7c0.3,0.4,0.6,0.6,1,0.6c0.4,0,0.8-0.2,1-0.6
		c0.3-0.4,0.4-1,0.4-1.8c0-0.5-0.1-0.9-0.2-1.3c-0.1-0.4-0.3-0.7-0.5-0.9c-0.2-0.2-0.5-0.3-0.8-0.3c-0.4,0-0.7,0.2-1,0.6
		C82,130.6,81.9,131.2,81.9,132.1z M81.3,132.1c0-1,0.2-1.8,0.6-2.4c0.4-0.6,0.9-0.9,1.5-0.9c0.4,0,0.7,0.1,1.1,0.4
		c0.3,0.3,0.6,0.6,0.7,1.1c0.2,0.5,0.2,1,0.2,1.6c0,0.6-0.1,1.2-0.3,1.6c-0.2,0.5-0.4,0.9-0.7,1.1c-0.3,0.2-0.7,0.4-1,0.4
		c-0.4,0-0.8-0.1-1.1-0.4c-0.3-0.3-0.6-0.7-0.7-1.1C81.4,133.2,81.3,132.6,81.3,132.1z M78.2,135.1V129h0.6v5.3h2.1v0.7H78.2z
		 M74,132.1c0,0.7,0.1,1.3,0.4,1.7c0.3,0.4,0.6,0.6,1,0.6c0.4,0,0.8-0.2,1-0.6c0.3-0.4,0.4-1,0.4-1.8c0-0.5-0.1-0.9-0.2-1.3
		c-0.1-0.4-0.3-0.7-0.5-0.9c-0.2-0.2-0.5-0.3-0.8-0.3c-0.4,0-0.7,0.2-1,0.6C74.1,130.6,74,131.2,74,132.1z M73.4,132.1
		c0-1,0.2-1.8,0.6-2.4c0.4-0.6,0.9-0.9,1.5-0.9c0.4,0,0.7,0.1,1.1,0.4c0.3,0.3,0.6,0.6,0.7,1.1c0.2,0.5,0.2,1,0.2,1.6
		c0,0.6-0.1,1.2-0.3,1.6c-0.2,0.5-0.4,0.9-0.7,1.1c-0.3,0.2-0.7,0.4-1,0.4c-0.4,0-0.8-0.1-1.1-0.4c-0.3-0.3-0.6-0.7-0.7-1.1
		C73.5,133.2,73.4,132.6,73.4,132.1z M69.3,135.1V129h0.6l2.2,4.8V129h0.5v6.1H72l-2.2-4.8v4.8H69.3z M65,135.1V129h0.6v2.5h2.2V129
		h0.6v6.1h-0.6v-2.9h-2.2v2.9H65z M63.7,132.9l0.6,0.2c-0.1,0.7-0.3,1.2-0.6,1.5c-0.3,0.3-0.7,0.5-1.1,0.5c-0.5,0-0.8-0.1-1.1-0.4
		c-0.3-0.3-0.5-0.7-0.7-1.2c-0.1-0.5-0.2-1-0.2-1.6c0-0.6,0.1-1.2,0.3-1.6c0.2-0.5,0.4-0.8,0.7-1.1c0.3-0.2,0.7-0.4,1-0.4
		c0.4,0,0.8,0.2,1.1,0.5c0.3,0.3,0.5,0.7,0.6,1.3l-0.6,0.2c-0.1-0.4-0.2-0.8-0.4-1c-0.2-0.2-0.4-0.3-0.7-0.3c-0.3,0-0.6,0.1-0.8,0.3
		c-0.2,0.2-0.4,0.5-0.5,0.9c-0.1,0.4-0.1,0.8-0.1,1.2c0,0.5,0.1,1,0.2,1.3c0.1,0.4,0.3,0.7,0.5,0.9c0.2,0.2,0.5,0.3,0.7,0.3
		c0.3,0,0.6-0.1,0.8-0.4C63.5,133.8,63.7,133.5,63.7,132.9z M56.8,135.1V129h3.1v0.7h-2.5v1.9h2.4v0.7h-2.4v2.1h2.6v0.7H56.8z
		 M54.2,135.1v-5.3h-1.4V129h3.4v0.7h-1.4v5.3H54.2z M47.7,134.3h0.9c0.3,0,0.5,0,0.7-0.1c0.2-0.1,0.3-0.2,0.4-0.3
		c0.1-0.2,0.2-0.4,0.3-0.8c0.1-0.3,0.1-0.7,0.1-1.2c0-0.6-0.1-1.1-0.2-1.5c-0.1-0.3-0.3-0.6-0.5-0.7c-0.2-0.1-0.4-0.1-0.7-0.1h-0.9
		V134.3z M47.2,135.1V129h1.5c0.3,0,0.6,0,0.8,0.1c0.2,0.1,0.5,0.2,0.6,0.4c0.2,0.3,0.4,0.6,0.5,1c0.1,0.4,0.2,0.9,0.2,1.4
		c0,0.5,0,0.9-0.1,1.2c-0.1,0.4-0.2,0.6-0.3,0.9c-0.1,0.2-0.2,0.4-0.4,0.5c-0.1,0.1-0.3,0.2-0.5,0.3c-0.2,0.1-0.4,0.1-0.7,0.1H47.2z
		 M42.9,135.1V129h0.6l2.2,4.8V129h0.5v6.1h-0.6l-2.2-4.8v4.8H42.9z M39.7,132.6h1.4l-0.4-1.7c-0.1-0.5-0.2-0.9-0.3-1.3
		c-0.1,0.4-0.1,0.8-0.2,1.2L39.7,132.6z M38.5,135.1l1.6-6.1h0.6l1.7,6.1h-0.6l-0.5-1.8h-1.8l-0.5,1.8H38.5z M33.3,135.1V129h3.1
		v0.7h-2.5v1.9h2.4v0.7h-2.4v2.1h2.6v0.7H33.3z M32.1,132.9l0.6,0.2c-0.1,0.7-0.3,1.2-0.6,1.5c-0.3,0.3-0.7,0.5-1.1,0.5
		c-0.5,0-0.8-0.1-1.1-0.4c-0.3-0.3-0.5-0.7-0.7-1.2c-0.1-0.5-0.2-1-0.2-1.6c0-0.6,0.1-1.2,0.3-1.6c0.2-0.5,0.4-0.8,0.7-1.1
		c0.3-0.2,0.7-0.4,1-0.4c0.4,0,0.8,0.2,1.1,0.5c0.3,0.3,0.5,0.7,0.6,1.3l-0.6,0.2c-0.1-0.4-0.2-0.8-0.4-1c-0.2-0.2-0.4-0.3-0.7-0.3
		c-0.3,0-0.6,0.1-0.8,0.3c-0.2,0.2-0.4,0.5-0.5,0.9c-0.1,0.4-0.1,0.8-0.1,1.2c0,0.5,0.1,1,0.2,1.3c0.1,0.4,0.3,0.7,0.5,0.9
		c0.2,0.2,0.5,0.3,0.7,0.3c0.3,0,0.6-0.1,0.8-0.4C31.8,133.8,32,133.5,32.1,132.9z M24.7,135.1V129h0.6l2.2,4.8V129h0.5v6.1h-0.6
		l-2.2-4.8v4.8H24.7z M20.8,135.1V129h3.1v0.7h-2.5v1.9h2.4v0.7h-2.4v2.1H24v0.7H20.8z M19.2,135.1V129h0.6v6.1H19.2z M17.9,132.9
		l0.6,0.2c-0.1,0.7-0.3,1.2-0.6,1.5c-0.3,0.3-0.7,0.5-1.1,0.5c-0.5,0-0.8-0.1-1.1-0.4c-0.3-0.3-0.5-0.7-0.7-1.2
		c-0.1-0.5-0.2-1-0.2-1.6c0-0.6,0.1-1.2,0.3-1.6c0.2-0.5,0.4-0.8,0.7-1.1c0.3-0.2,0.7-0.4,1-0.4c0.4,0,0.8,0.2,1.1,0.5
		c0.3,0.3,0.5,0.7,0.6,1.3l-0.6,0.2c-0.1-0.4-0.2-0.8-0.4-1c-0.2-0.2-0.4-0.3-0.7-0.3c-0.3,0-0.6,0.1-0.8,0.3
		c-0.2,0.2-0.4,0.5-0.5,0.9c-0.1,0.4-0.1,0.8-0.1,1.2c0,0.5,0.1,1,0.2,1.3c0.1,0.4,0.3,0.7,0.5,0.9c0.2,0.2,0.5,0.3,0.7,0.3
		c0.3,0,0.6-0.1,0.8-0.4C17.6,133.8,17.8,133.5,17.9,132.9z M10.7,133.1l0.5-0.1c0,0.3,0.1,0.6,0.2,0.7c0.1,0.2,0.2,0.4,0.4,0.5
		c0.2,0.1,0.4,0.2,0.7,0.2c0.2,0,0.4,0,0.6-0.1c0.2-0.1,0.3-0.2,0.4-0.4c0.1-0.2,0.1-0.3,0.1-0.5c0-0.2,0-0.4-0.1-0.5
		c-0.1-0.1-0.2-0.3-0.4-0.4c-0.1-0.1-0.4-0.2-0.8-0.3c-0.4-0.1-0.7-0.3-0.8-0.4c-0.2-0.2-0.4-0.3-0.5-0.6c-0.1-0.2-0.1-0.5-0.1-0.8
		c0-0.3,0.1-0.6,0.2-0.9c0.1-0.3,0.3-0.5,0.5-0.6c0.2-0.1,0.5-0.2,0.8-0.2c0.3,0,0.6,0.1,0.8,0.2c0.2,0.1,0.4,0.4,0.6,0.6
		c0.1,0.3,0.2,0.6,0.2,1l-0.5,0.1c0-0.4-0.1-0.7-0.3-0.9c-0.2-0.2-0.4-0.3-0.7-0.3c-0.3,0-0.6,0.1-0.7,0.3c-0.2,0.2-0.2,0.4-0.2,0.6
		c0,0.2,0.1,0.4,0.2,0.5c0.1,0.1,0.4,0.3,0.8,0.4c0.5,0.1,0.8,0.3,0.9,0.4c0.2,0.2,0.4,0.4,0.5,0.6c0.1,0.2,0.2,0.5,0.2,0.9
		c0,0.3-0.1,0.6-0.2,0.9c-0.1,0.3-0.3,0.5-0.6,0.7c-0.2,0.2-0.5,0.2-0.8,0.2c-0.4,0-0.7-0.1-1-0.2c-0.3-0.2-0.5-0.4-0.6-0.7
		C10.8,133.9,10.7,133.5,10.7,133.1z"/>
	<path class="st1" d="M20.2,63.9c0.1-0.9,6.4-12.7,6.4-12.7"/>
	<polyline class="st1" points="26.6,51.1 52.6,51.8 59.2,60.4 58.9,66.8 47.5,67.2 47.4,61.3 	"/>
	<path class="st1" d="M47.4,61.3c0-0.8,5.2-9.1,5.2-9.1"/>
	<line class="st1" x1="21.4" y1="66.3" x2="47.5" y2="67.2"/>
	<path class="st1" d="M25,54.6c0.9-0.1,25.3,0.8,25.3,0.8"/>
	<line class="st1" x1="23.7" y1="57" x2="49.1" y2="57.8"/>
	<line class="st1" x1="22.1" y1="59.8" x2="47.4" y2="61.3"/>
	<path class="st1" d="M59.2,60.4c0.3-0.9,5.4-3.3,5.4-3.3"/>
	<polyline class="st1" points="64.5,57 64.5,61.2 64.5,66.8 	"/>
	<path class="st1" d="M70.1,57.7l0.3,9.2L70.1,57.7z"/>
	<path class="st1" d="M64.5,61.7c0,0,0.2-0.1,0.5-0.6c0.3-0.4,5-3.2,5-3.2"/>
	<polyline class="st1" points="70.4,60.9 76,57.7 76.7,66.8 	"/>
	<polyline class="st1" points="78.8,59.2 82.6,57.2 82.5,67.6 	"/>
	<line class="st1" x1="58.7" y1="66.8" x2="82.9" y2="67.3"/>
	<path class="st3" d="M70.5,44.4l-0.2-0.5l-0.1-0.5l0.3-0.6l0.2-0.6l0.1-0.6l0.1-0.6l0-0.6l-0.1-0.6l-0.2-0.5l-0.3-0.5l0.2,0.1
		l0.2,0.1l0.2,0.1l0.2,0.1l0.2,0.1l0.2,0.1l0.2,0.1l0.2,0.1l3.5,2.9l0-0.5l-0.2-0.5l-0.2-0.5l-0.3-0.6l-0.3-0.5l-0.4-0.6l-0.4-0.5
		l-0.4-0.4l-0.2-0.1L72.9,38l-0.3-0.1l-0.3-0.2l-0.4-0.2l-0.4-0.2L71,37.3l-0.3-0.1l0.3,0l0.3,0l0.3,0l0.3,0l0.3,0l0.2,0l0.2,0
		l0.2,0l0-0.1l0-0.3l0-0.3l0-0.2l0.3,0.7l0.3,0.1l0.3,0.1l0.4,0.2l0.4,0.2l0.4,0.2l0.4,0.2l0.4,0.2l0.3,0.1l-0.2-0.4l-0.4-0.5
		L75,36.8l-0.6-0.4L73.6,36l-0.8-0.3L72,35.6l-1,0l0.2-0.3l0.3-0.2l0.3-0.2l0.4-0.2l0.4-0.1l0.4,0l0.5,0l0.5,0.1l0-0.4l0.5,0.4
		l0.2,0l0.2,0.1l0.2,0.1l0.2,0.1l0.2,0.1l0.2,0l0.1,0.1l0,0l-0.7-1l-0.8-0.6l-0.8-0.3l-0.8,0L72,33.2l-0.7,0.3l-0.6,0.4l-0.4,0.5
		l0.1-0.3l0.1-0.2l0.1-0.2l0.2-0.2l0.1-0.2l0.1-0.1l0.1-0.1l0.1-0.1l0.3-0.2l0.5-0.2l0.5-0.2l0.5-0.2l0.5-0.2l0.4-0.1l0.3-0.1l0.1,0
		l-0.4-0.1l-0.4-0.1L73,31.4l-0.4,0l-0.4-0.1l-0.4,0l-0.4,0l-0.4,0l-0.2,0.1l-0.2,0.1l-0.2,0.1L70.2,32L70,32.2l-0.2,0.3l-0.3,0.3
		l-0.4,0.4l0.3-1.4l2-2l-0.5,0.1L70.4,30L70,30.1l-0.5,0.2L69,30.6l-0.4,0.2l-0.3,0.2L68,31.3L68,31.4l0,0.2l-0.1,0.2l0,0.2l0,0.3
		l0,0.3l0,0.2l0,0.2l-0.2-0.1l-0.2-0.1l-0.2-0.2l-0.2-0.2l-0.2-0.2L66.7,32l-0.1-0.1l-0.1-0.1l-0.2,0l-0.3,0l-0.4,0l-0.5,0l-0.5,0.1
		L64,31.9L63.5,32L63,32.2l0.1,0l0.2,0l0.3,0.1l0.3,0.1l0.4,0.1l0.4,0.1l0.5,0.1l0.4,0.1l0.2,0.2l0.1,0.2l0.2,0.1l0.1,0.1l0.1,0.1
		l0.2,0.1l0.1,0.1l0.2,0.1l-0.2-0.1l-0.3,0l-0.3-0.1l-0.3-0.1l-0.3,0l-0.3,0l-0.2,0l-0.2,0l-0.5,0.2l-0.5,0.3l-0.4,0.4L63,34.9
		l-0.3,0.4l-0.2,0.3l-0.1,0.2l0,0.1l0.3-0.2l0.3-0.2l0.3-0.2l0.3-0.1l0.3-0.1l0.3-0.1l0.3-0.1l0.2-0.1l0.3,0l0.3,0l0.3,0.1L66,35
		l0.3,0.1l0.3,0.1l0.3,0.1l0.2,0.2l-0.3,0l-0.3,0l-0.3,0l-0.4,0.1l-0.3,0.1l-0.3,0.1L64.7,36l-0.3,0.1l-0.4,0.4L63.7,37l-0.3,0.5
		L63.2,38L63,38.4l-0.1,0.3L62.8,39l0,0.1l0.3-0.4l0.4-0.4l0.4-0.3l0.5-0.3l0.5-0.3l0.4-0.2l0.4-0.1l0.3,0l0.1-0.4l0.2,0.3l0.2,0
		l0.3,0.1l0.3,0.1l0.3,0.1l-0.4,0.1l-0.4,0.1L66,37.6l-0.3,0.2L65.4,38l-0.3,0.2l-0.3,0.2l-0.2,0.1l-0.2,0.3l-0.3,0.4l-0.3,0.5
		l-0.3,0.6L63.4,41l-0.1,0.7l-0.1,0.8l0.1,0.8l0.2-0.3l0.2-0.3l0.1-0.3l0.1-0.2l0.1-0.2l0.1-0.2l0.1-0.2l0.1-0.2l0-0.1l0-0.1l0-0.2
		l0-0.1l0.1,0.1l0.1,0l0.1,0l0,0l0.2-0.3l0.3-0.3l0.3-0.3l0.3-0.3l0.3-0.3l0.3-0.3l0.3-0.2l0.3-0.2l-0.1,0.2L66.8,39l-0.1,0.2
		l-0.1,0.2l-0.1,0.2l-0.1,0.2L66.3,40l-0.1,0.2l0,0.4l0,0.5l0.1,0.6l0.1,0.6l0.2,0.7l0.2,0.7l0.3,0.6l0.4,0.6l0-0.3l0-0.4l0-0.4
		l0-0.4l0-0.4l0-0.4l0-0.4l0.1-0.4l0-0.4l0.1-0.4l0.1-0.3l0.1-0.3l0.1-0.3l0.1-0.3l0.1-0.3l0.1-0.2l0,0.2l0,0.2l0,0.2l0,0.2l0.2,0.1
		l-0.1,0.2l0,0.2l-0.1,0.1l0,0.1l0.1,0.1l0.2,0.2l0.3,0.2l0.2,0.1l0,0.1l0,0.1l0,0.1l0,0.1l0.1,0.3l0.1,0.4l0.1,0.4l0.2,0.4l0.1,0.5
		l0.1,0.4L70.5,44.4z M70,44.3l-0.1-0.4l-0.1-0.4l-0.1-0.4l-0.1-0.4l0-0.3l0-0.2l0.1-0.1l0-0.2l0.1-0.1l0.1,0.4l0.1,0.4l0.1,0.4
		l0.1,0.4l0.1,0.5l0.1,0.5L70,44.3z"/>
	<path class="st1" d="M70.5,44.4l-0.2-0.5l-0.1-0.5l0.3-0.6l0.2-0.6l0.1-0.6l0.1-0.6l0-0.6l-0.1-0.6l-0.2-0.5l-0.3-0.5l0.2,0.1
		l0.2,0.1l0.2,0.1l0.2,0.1l0.2,0.1l0.2,0.1l0.2,0.1l0.2,0.1l3.5,2.9l0-0.5l-0.2-0.5l-0.2-0.5l-0.3-0.6l-0.3-0.5l-0.4-0.6l-0.4-0.5
		l-0.4-0.4l-0.2-0.1L72.9,38l-0.3-0.1l-0.3-0.2l-0.4-0.2l-0.4-0.2L71,37.3l-0.3-0.1l0.3,0l0.3,0l0.3,0l0.3,0l0.3,0l0.2,0l0.2,0
		l0.2,0l0-0.1l0-0.3l0-0.3l0-0.2l0.3,0.7l0.3,0.1l0.3,0.1l0.4,0.2l0.4,0.2l0.4,0.2l0.4,0.2l0.4,0.2l0.3,0.1l-0.2-0.4l-0.4-0.5
		L75,36.8l-0.6-0.4L73.6,36l-0.8-0.3L72,35.6l-1,0l0.2-0.3l0.3-0.2l0.3-0.2l0.4-0.2l0.4-0.1l0.4,0l0.5,0l0.5,0.1l0-0.4l0.5,0.4
		l0.2,0l0.2,0.1l0.2,0.1l0.2,0.1l0.2,0.1l0.2,0l0.1,0.1l0,0l-0.7-1l-0.8-0.6l-0.8-0.3l-0.8,0L72,33.2l-0.7,0.3l-0.6,0.4l-0.4,0.5
		l0.1-0.3l0.1-0.2l0.1-0.2l0.2-0.2l0.1-0.2l0.1-0.1l0.1-0.1l0.1-0.1l0.3-0.2l0.5-0.2l0.5-0.2l0.5-0.2l0.5-0.2l0.4-0.1l0.3-0.1l0.1,0
		l-0.4-0.1l-0.4-0.1L73,31.4l-0.4,0l-0.4-0.1l-0.4,0l-0.4,0l-0.4,0l-0.2,0.1l-0.2,0.1l-0.2,0.1L70.2,32L70,32.2l-0.2,0.3l-0.3,0.3
		l-0.4,0.4l0.3-1.4l2-2l-0.5,0.1L70.4,30L70,30.1l-0.5,0.2L69,30.6l-0.4,0.2l-0.3,0.2L68,31.3L68,31.4l0,0.2l-0.1,0.2l0,0.2l0,0.3
		l0,0.3l0,0.2l0,0.2l-0.2-0.1l-0.2-0.1l-0.2-0.2l-0.2-0.2l-0.2-0.2L66.7,32l-0.1-0.1l-0.1-0.1l-0.2,0l-0.3,0l-0.4,0l-0.5,0l-0.5,0.1
		L64,31.9L63.5,32L63,32.2l0.1,0l0.2,0l0.3,0.1l0.3,0.1l0.4,0.1l0.4,0.1l0.5,0.1l0.4,0.1l0.2,0.2l0.1,0.2l0.2,0.1l0.1,0.1l0.1,0.1
		l0.2,0.1l0.1,0.1l0.2,0.1l-0.2-0.1l-0.3,0l-0.3-0.1l-0.3-0.1l-0.3,0l-0.3,0l-0.2,0l-0.2,0l-0.5,0.2l-0.5,0.3l-0.4,0.4L63,34.9
		l-0.3,0.4l-0.2,0.3l-0.1,0.2l0,0.1l0.3-0.2l0.3-0.2l0.3-0.2l0.3-0.1l0.3-0.1l0.3-0.1l0.3-0.1l0.2-0.1l0.3,0l0.3,0l0.3,0.1L66,35
		l0.3,0.1l0.3,0.1l0.3,0.1l0.2,0.2l-0.3,0l-0.3,0l-0.3,0l-0.4,0.1l-0.3,0.1l-0.3,0.1L64.7,36l-0.3,0.1l-0.4,0.4L63.7,37l-0.3,0.5
		L63.2,38L63,38.4l-0.1,0.3L62.8,39l0,0.1l0.3-0.4l0.4-0.4l0.4-0.3l0.5-0.3l0.5-0.3l0.4-0.2l0.4-0.1l0.3,0l0.1-0.4l0.2,0.3l0.2,0
		l0.3,0.1l0.3,0.1l0.3,0.1l-0.4,0.1l-0.4,0.1L66,37.6l-0.3,0.2L65.4,38l-0.3,0.2l-0.3,0.2l-0.2,0.1l-0.2,0.3l-0.3,0.4l-0.3,0.5
		l-0.3,0.6L63.4,41l-0.1,0.7l-0.1,0.8l0.1,0.8l0.2-0.3l0.2-0.3l0.1-0.3l0.1-0.2l0.1-0.2l0.1-0.2l0.1-0.2l0.1-0.2l0-0.1l0-0.1l0-0.2
		l0-0.1l0.1,0.1l0.1,0l0.1,0l0,0l0.2-0.3l0.3-0.3l0.3-0.3l0.3-0.3l0.3-0.3l0.3-0.3l0.3-0.2l0.3-0.2l-0.1,0.2L66.8,39l-0.1,0.2
		l-0.1,0.2l-0.1,0.2l-0.1,0.2L66.3,40l-0.1,0.2l0,0.4l0,0.5l0.1,0.6l0.1,0.6l0.2,0.7l0.2,0.7l0.3,0.6l0.4,0.6l0-0.3l0-0.4l0-0.4
		l0-0.4l0-0.4l0-0.4l0-0.4l0.1-0.4l0-0.4l0.1-0.4l0.1-0.3l0.1-0.3l0.1-0.3l0.1-0.3l0.1-0.3l0.1-0.2l0,0.2l0,0.2l0,0.2l0,0.2l0.2,0.1
		l-0.1,0.2l0,0.2l-0.1,0.1l0,0.1l0.1,0.1l0.2,0.2l0.3,0.2l0.2,0.1l0,0.1l0,0.1l0,0.1l0,0.1l0.1,0.3l0.1,0.4l0.1,0.4l0.2,0.4l0.1,0.5
		l0.1,0.4L70.5,44.4z M70,44.3l-0.1-0.4l-0.1-0.4l-0.1-0.4l-0.1-0.4l0-0.3l0-0.2l0.1-0.1l0-0.2l0.1-0.1l0.1,0.4l0.1,0.4l0.1,0.4
		l0.1,0.4l0.1,0.5l0.1,0.5L70,44.3z"/>
	<path class="st3" d="M75.5,56.2c-0.5-0.9-6.3-13.3-5.3-13.6l1.1-0.3C70,43.9,83.7,70,84.9,68c0,0-1.2,2-1.2,2
		C83.7,70.1,79.2,63.3,75.5,56.2z"/>
	<path class="st1" d="M75.5,56.2c-0.5-0.9-6.3-13.3-5.3-13.6l1.1-0.3C70,43.9,83.7,70,84.9,68c0,0-1.2,2-1.2,2
		C83.7,70.1,79.2,63.3,75.5,56.2z"/>
	<path class="st3" d="M97.8,55c1.2-0.1,2.1-0.9,2.6-1.7l-0.7-0.9c-0.4,0.9-1.4,1.4-2.1,1.4c-1,0.1-2-0.2-2.1-1
		c-0.1-0.9,0.4-1.2,1.2-1.4l1.1-0.2c1.5-0.2,2.1-1.3,2-2.4c-0.1-0.8-0.4-1.3-1-1.6c0.4-0.3,0.7-0.8,0.6-1.6c-0.1-1-1.2-2.3-3.1-2.1
		c-0.9,0.1-2.2,0.7-2.8,1.9l0.8,0.7c0.6-1,1.5-1.5,2.2-1.6c1.2-0.1,1.9,0.3,2,1.2c0.1,0.5-0.3,1-1.1,1.1L94,47.4l0.1,1.1l3.4-0.4
		c0.7-0.1,1.2,0.4,1.3,1c0.1,0.7-0.3,1.1-1.3,1.3l-1,0.1c-1.2,0.2-2.1,0.9-1.9,2.4C94.8,54.7,96.6,55.1,97.8,55 M93.3,40.5l-0.8-2
		c1.7,0.8,2.5,0.6,3,0.4c0.4-0.2,0.7-0.5,0.9-0.8c0.2,0.9-0.4,1.3-1.8,1.9L93.3,40.5z M95.1,37.9c-0.7,0.3-1.6,0.2-3-0.7l1.4-0.6
		c1.2-0.5,1.9-0.4,2.1,0.2C95.9,37.3,95.6,37.7,95.1,37.9z M92.8,41.8L95,41c2.2-0.9,2.7-2.1,2-3.8c-0.3-0.8-0.8-1.4-1.5-1.7
		c-0.8-0.3-1.2-0.3-3.1,0.5l-1.7,0.7L92.8,41.8z M89.1,29.5c-0.6,0.4-1.2,0.5-1.6,0c-0.2-0.3-0.1-0.9,0.6-1.4
		c0.6-0.4,1.5-0.5,2.1-0.4C90,28.5,89.7,29,89.1,29.5z M91.4,31.9c1.1-0.8,1.9-2.4,0.8-3.9c-0.3-0.4-0.6-0.7-1.1-1
		c0-0.2-0.1-0.7-0.4-1.1c-1.2-1.7-3.1-1.4-4.1-0.7c-0.9,0.7-1.4,1.7-1.5,2.8l1,0.4c-0.1-1,0.5-1.8,1.1-2.3c0.9-0.6,2.1-0.6,2.6,0.1
		c0.1,0.2,0.2,0.4,0.3,0.4c-0.9-0.2-1.9,0-2.6,0.5c-1.1,0.8-1.3,2.1-0.7,2.8c0.8,1.1,2.1,1,3,0.3c0.6-0.4,1.2-1.1,1.4-2.2
		c0.1,0.1,0.2,0.2,0.3,0.3c0.7,0.9,0.2,2.1-0.6,2.7c-0.6,0.4-1.6,0.7-2.5,0.3l0.1,1C89.3,32.7,90.5,32.6,91.4,31.9z M84,18.4
		c-0.1,0.2-0.4,0.2-0.6,0.1c-0.1-0.1-0.2-0.4,0-0.6c0.2-0.2,0.5-0.2,0.5-0.2C84.3,17.9,84.2,18.3,84,18.4z M81.9,24.6l3.8-4.5
		c0.8-0.9,0.7-2-0.1-2.7c-0.8-0.8-2.1-0.8-2.8,0c-0.5,0.6-0.4,1.3,0.1,1.8c0.6,0.5,1.3,0.4,1.7-0.1c0.5-0.6,0.3-1.2,0.3-1.2
		s0.2,0.1,0.3,0.4c0.2,0.3,0,0.7-0.5,1.3l-3.6,4.3L81.9,24.6z M79.1,18.3c0.5-0.9,0.7-2.2,0.1-3.4l-1,0.2c0.5,1.1,0.3,2.1,0,2.7
		c-0.6,1-1.4,1.3-2.1,0.9c-0.5-0.3-0.6-0.8-0.2-1.5l1.7-3l-1-0.5l-1.7,3c-0.4,0.7-1,0.8-1.5,0.5c-0.6-0.3-0.9-1.2-0.3-2.3
		c0.3-0.6,1.1-1.3,2.3-1.4l-0.3-1c-1.4,0.1-2.4,1-2.9,1.9c-1,1.9-0.2,3.1,0.8,3.6c0.7,0.4,1.2,0.4,1.8,0.1c0,0.5,0.2,1,1,1.4
		C76.6,20.1,78,20.1,79.1,18.3z M67.7,15.3L69,9.9l-1.1-0.2l-1,4.5l-2.5-0.6c0.3-0.3,0.8-0.9,0.9-1.6c0.3-1.5-0.4-3-2-3.4
		c-1.7-0.4-3.1,0.8-3.4,2.2c-0.3,1.1,0,2.2,1.1,3.2l0.7-0.6c-0.8-0.8-1-1.4-0.8-2.3C61.1,9.9,62,9.2,63,9.4c1.1,0.2,1.5,1.3,1.3,2.3
		c-0.2,0.8-0.7,1.5-1.4,1.7l-0.2,0.8L67.7,15.3z M57.1,10.2c0-1.4-0.6-2.8-2.1-2.8c-1.4,0-2.1,1-2.2,2.4l1,0c0-1.1,0.5-1.4,1.1-1.4
		c0.8,0,1.1,0.9,1.1,1.9c0,1.1-0.3,1.9-1.2,1.9c-0.5,0-1-0.3-1-1.3l-1,0c0,1.6,0.9,2.2,2,2.3C56.5,13.1,57.1,11.8,57.1,10.2z M50,10
		c-0.4-2.1-1.7-2.6-2.8-2.4c-0.8,0.1-1.2,0.5-1.4,1c-0.4-0.4-0.9-0.6-1.7-0.5c-1.1,0.2-2.3,1.1-1.9,3.2c0.2,1,0.9,2.1,2.1,2.7
		l0.6-0.8c-1.1-0.5-1.6-1.4-1.7-2.1c-0.2-1.2,0.4-1.9,1-2c0.6-0.1,1.1,0.2,1.3,1l0.6,3.4l1.1-0.2L46.6,10c-0.1-0.7,0.2-1.3,0.7-1.4
		c0.8-0.1,1.5,0.4,1.7,1.6c0.1,0.7,0,1.8-0.8,2.6l0.8,0.6C50,12.3,50.2,11,50,10z M36.3,16.6L34,11.2c-0.5-1.2-1.4-1.5-2.4-1.1
		c-1,0.4-1.3,1.5-0.9,2.5l1-0.4c-0.2-0.5-0.2-1,0.3-1.2c0.5-0.2,0.8,0.2,1.1,0.8l2.2,5.3L36.3,16.6z M33.1,18.1l-2.8-4.8l-0.9,0.5
		l2.3,4l-1,0.6l0.5,0.8L33.1,18.1z M27.3,17.9c-0.8-0.9-1.9-1.2-2.9-1.2l-0.3,1c1-0.2,1.9,0.4,2.4,0.8c0.7,0.8,1,1.7,0.4,2.3
		c-0.6,0.6-1.2,0.4-1.8-0.2L24.4,20c-1.1-1.1-2.3-1-3.1-0.2c-0.6,0.5-0.8,1.1-0.7,1.7c-0.5-0.1-1-0.1-1.6,0.5
		c-0.8,0.7-1.2,2.3,0.1,3.7c0.6,0.7,1.9,1.3,3.2,1.1l0.1-1c-1.2,0.1-2.1-0.3-2.6-0.8c-0.8-0.9-0.8-1.7-0.2-2.3
		c0.4-0.4,1-0.3,1.5,0.2l2.3,2.5l0.8-0.7l-2.3-2.5c-0.5-0.5-0.4-1.2,0-1.6c0.5-0.5,1.1-0.5,1.8,0.3l0.7,0.7c0.9,0.9,2,1.1,3.1,0.2
		C28.9,20.4,28.1,18.7,27.3,17.9z M18.5,29.8c0.2,0.1,0.1,0.4,0,0.6c-0.1,0.2-0.3,0.3-0.5,0.2c-0.2-0.1-0.2-0.4-0.1-0.6
		C18,29.9,18.3,29.7,18.5,29.8z M13,32.8c0.2,0.1,0.2,0.4,0.1,0.5c-0.1,0.2-0.3,0.3-0.5,0.2c-0.2-0.1-0.2-0.4-0.1-0.6
		C12.5,32.8,12.8,32.7,13,32.8z M18.9,29c-0.6-0.3-1.1-0.1-1.5,0.6c-0.3,0.5-0.7,1.5-0.9,2.6c-0.2,1.1-0.6,2.8-1.4,2.4
		c-0.5-0.3-0.1-1.2,0.5-2.2l0.7-1.1c1-1.7,1.2-3.2,0-3.9c-1.1-0.7-2.1,0-2.5,0.8c-0.5,0.9-0.4,1.6-0.3,1.8c-0.4,0.1-1.1,0.4-1.6,1.2
		c-0.6,1-0.8,2.3,0.2,2.9c0.6,0.3,1.2,0.1,1.7-0.6c0.3-0.4,0.5-1.2-0.1-1.6c-0.7-0.4-1.2,0.2-1.2,0.2c0-0.2,0-0.3,0.1-0.4
		c0.3-0.5,1-0.9,1.6-0.5l0.6,0.4l0.6-0.9l-0.7-0.4c-0.5-0.3-0.5-0.8-0.2-1.4c0.3-0.5,0.9-0.8,1.3-0.5c0.6,0.4,0.5,1.2-0.2,2.3
		l-0.8,1.3c-1.1,1.8-1.1,3-0.3,3.5c0.8,0.5,1.6,0,2.1-0.8c0.3-0.5,0.6-1.3,0.7-2.2c0.1-0.5,0.2-1.1,0.2-1.4c0,0,0.1,0,0.1,0.1
		c0.5,0.3,1.1,0,1.5-0.6C19.4,30.1,19.5,29.4,18.9,29z M11.4,41c0.7,0.2,1.2,0.6,1,1.3c-0.1,0.4-0.7,0.6-1.5,0.4
		c-0.7-0.2-1.3-0.8-1.6-1.4C10.1,40.8,10.7,40.7,11.4,41z M11.9,37.6c-1.3-0.4-3,0-3.6,1.8c-0.1,0.5-0.2,1-0.1,1.4
		c-0.2,0.2-0.5,0.5-0.6,1c-0.6,2,0.8,3.3,2,3.6c1.1,0.3,2.2,0.1,3.1-0.5l-0.3-1c-0.7,0.7-1.8,0.7-2.5,0.5c-1-0.3-1.8-1.3-1.5-2.1
		c0.1-0.2,0.1-0.4,0.2-0.5c0.4,0.8,1.2,1.5,2,1.8c1.3,0.4,2.4-0.2,2.7-1.2c0.4-1.3-0.5-2.3-1.6-2.6c-0.7-0.2-1.7-0.3-2.6,0.3
		c0-0.1,0-0.3,0.1-0.4c0.3-1.1,1.5-1.5,2.5-1.2c0.7,0.2,1.5,0.8,1.8,1.8l0.8-0.7C13.8,38.8,13,37.9,11.9,37.6z M10.6,49.3
		c0.2,0,0.5,0.3,0.4,0.5c-0.1,0.2-0.4,0.3-0.5,0.2c-0.3,0-0.4-0.3-0.4-0.4C10.2,49.4,10.3,49.2,10.6,49.3z M7.7,49
		c0.2,0,0.4,0.2,0.4,0.5c0,0.2-0.1,0.4-0.4,0.3c-0.1,0-0.3-0.1-0.4-0.3C7.2,49.2,7.5,49,7.7,49z M10.7,48.3
		c-0.8-0.1-1.3,0.4-1.3,1.2c-0.1,0.8,0.3,1.3,1,1.4c0.4,0,0.6-0.2,0.6-0.1c0,0-0.4,1.5-2.1,1.3C7.2,52,7,50.5,7,50.5
		c0-0.1,0.1,0.2,0.6,0.2c0.8,0.1,1.2-0.4,1.3-1.2c0.1-0.8-0.3-1.4-1.1-1.4c-0.8-0.1-1.4,0.7-1.6,2c-0.1,1.6,0.9,3,2.5,3.1
		c1.6,0.1,3-1,3.1-2.6C12,49.2,11.5,48.4,10.7,48.3z"/>
	<path class="st1" d="M32.5,80.6c-8.5-6.3-13.9-16.2-13.9-27.5c0-19,15.6-34.3,34.8-34.3s34.8,15.4,34.8,34.3
		c0,10.5-4.8,20-12.4,26.3"/>
	<polygon class="st0" points="87.1,49.4 89.1,49.1 89.1,55.9 87.2,56.2 	"/>
	<path class="st3" d="M91.2,52.9c-0.5,0-1-0.1-1-0.6c0-0.3,0.3-0.6,0.9-0.7c0.5,0,1.1,0.2,1.5,0.6C92.2,52.7,91.8,52.9,91.2,52.9
		 M91.8,55.4c1-0.1,2.1-0.8,2-2.2c0-0.4-0.1-0.7-0.3-1c0.1-0.2,0.2-0.5,0.2-0.9c-0.1-1.5-1.4-2-2.3-2c-0.9,0.1-1.6,0.5-2,1.2
		l0.5,0.6c0.3-0.7,1-1,1.6-1c0.8-0.1,1.6,0.4,1.6,1.1c0,0.2,0,0.3,0,0.4c-0.5-0.4-1.2-0.7-1.9-0.7c-1,0.1-1.6,0.8-1.5,1.5
		c0.1,1,1,1.4,1.8,1.3c0.5,0,1.2-0.3,1.7-0.9c0,0.1,0.1,0.2,0.1,0.3c0.1,0.8-0.6,1.4-1.4,1.5c-0.5,0-1.3-0.1-1.7-0.7l-0.3,0.7
		C90.1,55.1,90.9,55.4,91.8,55.4z"/>
	<path class="st1" d="M89.9,54.3c-1.5-0.7-0.7-4.4-2-4.3c-1.1,0.1,0,3,0.1,5.6"/>
	<polyline class="st1" points="42,84.5 36.6,78.4 44,80.8 39.4,73.8 46.2,78.1 45.2,70.3 49.5,77.2 50.9,69.4 52.5,76.8 55.4,70.1 
		55.7,77.1 60.2,71.6 58.4,78.7 64.6,74.8 60.9,81.3 68,78.3 62.9,84.8 	"/>
</g>
<g>
</g>
<g>
</g>
<g>
</g>
<g>
</g>
<g>
</g>
<g>
</g>
<g>
</g>
<g>
</g>
<g>
</g>
<g>
</g>
<g>
</g>
<g>
</g>
<g>
</g>
<g>
</g>
<g>
</g>
</svg>
